REM DISCID FC0A9E14
REM COMMENT "ExactAudioCopy v1.0b3"
PERFORMER "Unknown Artist"
TITLE "Unknown Title"
FILE "myneighbortotoro.wav" WAVE
  TRACK 01 AUDIO
    TITLE "Track01"
    PERFORMER "Unknown Artist"
    ISRC JPTK08880501
    INDEX 01 00:00:00
  TRACK 02 AUDIO
    TITLE "Track02"
    PERFORMER "Unknown Artist"
    ISRC JPTK08880502
    INDEX 01 02:43:72
  TRACK 03 AUDIO
    TITLE "Track03"
    PERFORMER "Unknown Artist"
    ISRC JPTK08880503
    INDEX 01 04:22:57
  TRACK 04 AUDIO
    TITLE "Track04"
    PERFORMER "Unknown Artist"
    ISRC JPTK08880504
    INDEX 01 05:46:25
    INDEX 02 06:26:60
    INDEX 03 06:50:25
  TRACK 05 AUDIO
    TITLE "Track05"
    PERFORMER "Unknown Artist"
    ISRC JPTK08880505
    INDEX 01 07:20:47
  TRACK 06 AUDIO
    TITLE "Track06"
    PERFORMER "Unknown Artist"
    ISRC JPTK08880506
    INDEX 01 08:21:55
  TRACK 07 AUDIO
    TITLE "Track07"
    PERFORMER "Unknown Artist"
    ISRC JPTK08880507
    INDEX 01 09:05:45
  TRACK 08 AUDIO
    TITLE "Track08"
    PERFORMER "Unknown Artist"
    ISRC JPTK08880508
    INDEX 01 10:28:00
  TRACK 09 AUDIO
    TITLE "Track09"
    PERFORMER "Unknown Artist"
    ISRC JPTK08880509
    INDEX 01 11:34:65
  TRACK 10 AUDIO
    TITLE "Track10"
    PERFORMER "Unknown Artist"
    ISRC JPTK08880510
    INDEX 01 15:29:35
    INDEX 02 17:26:37
  TRACK 11 AUDIO
    TITLE "Track11"
    PERFORMER "Unknown Artist"
    ISRC JPTK08880511
    INDEX 01 18:18:60
  TRACK 12 AUDIO
    TITLE "Track12"
    PERFORMER "Unknown Artist"
    ISRC JPTK08880512
    INDEX 01 20:33:67
  TRACK 13 AUDIO
    TITLE "Track13"
    PERFORMER "Unknown Artist"
    ISRC JPTK08880513
    INDEX 01 24:22:25
  TRACK 14 AUDIO
    TITLE "Track14"
    PERFORMER "Unknown Artist"
    ISRC JPTK08880514
    INDEX 01 27:39:07
    INDEX 02 28:20:72
    INDEX 03 29:23:45
  TRACK 15 AUDIO
    TITLE "Track15"
    PERFORMER "Unknown Artist"
    ISRC JPTK08880515
    INDEX 01 30:12:62
    INDEX 02 31:17:29
  TRACK 16 AUDIO
    TITLE "Track16"
    PERFORMER "Unknown Artist"
    ISRC JPTK08880516
    INDEX 01 32:18:50
    INDEX 02 33:06:32
  TRACK 17 AUDIO
    TITLE "Track17"
    PERFORMER "Unknown Artist"
    ISRC JPTK08880517
    INDEX 01 34:50:65
  TRACK 18 AUDIO
    TITLE "Track18"
    PERFORMER "Unknown Artist"
    ISRC JPTK08880518
    INDEX 01 37:02:22
  TRACK 19 AUDIO
    TITLE "Track19"
    PERFORMER "Unknown Artist"
    ISRC JPTK08880519
    INDEX 01 38:17:57
  TRACK 20 AUDIO
    TITLE "Track20"
    PERFORMER "Unknown Artist"
    ISRC JPTK08880520
    INDEX 00 42:32:66
    INDEX 01 42:35:27
